
<svg xmlns="http://www.w3.org/2000/svg" version="1.1" xmlns:xlink="http://www.w3.org/1999/xlink" preserveAspectRatio="none" x="0px" y="0px" width="100px" height="100px" viewBox="0 0 100 100">
<defs>
<g id="Layer0_0_FILL">
<path fill="#FF3300" stroke="none" d="
M 91.55 48.5
Q 89.15 46.1 85.75 46.1 82.4 46.1 79.95 48.5 77.6 50.9 77.6 54.3 77.6 57.65 79.95 60.05 82.4 62.45 85.75 62.45 89.15 62.45 91.55 60.05 93.95 57.65 93.95 54.3 93.95 50.9 91.55 48.5 Z"/>

<path fill="#0066CC" stroke="none" d="
M 79.45 20.85
Q 66.95 8.35 49.2 8.35 31.45 8.35 18.9 20.85 6.4 33.4 6.4 51.15 6.4 68.9 18.9 81.4 31.45 93.95 49.2 93.95 66.95 93.95 79.45 81.4 84.257421875 76.61171875 87.2 71.05
L 48.55 53.35 89.15 35.4
Q 86.024609375 27.424609375 79.45 20.85
M 46.4 32.15
Q 43.05 32.15 40.6 29.75 38.25 27.35 38.25 24 38.25 20.6 40.6 18.2 43.05 15.8 46.4 15.8 49.8 15.8 52.2 18.2 54.6 20.6 54.6 24 54.6 27.35 52.2 29.75 49.8 32.15 46.4 32.15 Z"/>
</g>
</defs>

<g transform="matrix( 1, 0, 0, 1, 0,0) ">
<use xlink:href="#Layer0_0_FILL"/>
</g>
</svg>
